<?xml version="1.0" encoding="UTF-8" standalone="no"?>
<svg
   xmlns:dc="http://purl.org/dc/elements/1.1/"
   xmlns:cc="http://creativecommons.org/ns#"
   xmlns:rdf="http://www.w3.org/1999/02/22-rdf-syntax-ns#"
   xmlns:svg="http://www.w3.org/2000/svg"
   xmlns="http://www.w3.org/2000/svg"
   viewBox="0 0 200.25333 173.48"
   height="173.48"
   width="200.25333"
   xml:space="preserve"
   id="svg2"
   version="1.1"><metadata
     id="metadata8"><rdf:RDF><cc:Work
         rdf:about=""><dc:format>image/svg+xml</dc:format><dc:type
           rdf:resource="http://purl.org/dc/dcmitype/StillImage" /></cc:Work></rdf:RDF></metadata><defs
     id="defs6" /><g
     transform="matrix(1.3333333,0,0,-1.3333333,0,173.48)"
     id="g10"><g
       transform="scale(0.1)"
       id="g12"><path
         id="path14"
         style="fill:#ffffff;fill-opacity:1;fill-rule:nonzero;stroke:none"
         d="m 1266.14,998.926 c -57.02,41.154 -121.83,74.974 -192.49,100.544 l -4.72,1.69 -1.91,4.63 c -47.94,117.29 -110.04,177.55 -130.665,195.29 -57.234,-59.85 -94.492,-134.62 -98.64,-143.02 l -3.301,-6.99 -7.695,0.6 c -49.465,3.79 -101.602,3.79 -151.836,-0.03 l -7.52,-0.57 -3.34,6.57 c -40.468,77.7 -83.976,127.48 -98.742,143.3 -86.66,-74.95 -130.273,-193.65 -130.691,-194.85 l -1.66,-4.96 -5.137,-1.81 C 357.313,1073.77 292.684,1040.01 235.789,998.926 83.75,889.375 0,739.676 0,577.355 0,415.039 83.75,265.309 235.789,155.801 375.008,55.4688 557.969,0 750.711,0 c 193.168,0 376.159,55.4688 515.429,155.801 152.01,109.551 235.74,259.258 235.74,421.554 0,162.297 -83.73,312.012 -235.74,421.571" /><path
         id="path16"
         style="fill:#ce0f3e;fill-opacity:1;fill-rule:nonzero;stroke:none"
         d="m 1195.51,903.453 c -19.06,13.711 -39.18,26.317 -60.07,38.024 3.03,-17.118 6.13,-36.903 7.62,-52.563 0,0 47.34,-111.73 67.92,-176.476 0,0 16.21,-156.676 -106.39,-343.727 l -27.28,54.953 c 0,0 -67.04,-43.098 -96.58,-129.445 -20.449,-59.789 -28.855,-111.918 -57.039,-153.11 101.679,20.84 194.929,60.02 271.779,115.403 119.69,86.183 185.53,201.105 185.53,323.429 0,122.399 -65.84,237.297 -185.49,323.512" /><path
         id="path18"
         style="fill:#ce0f3e;fill-opacity:1;fill-rule:nonzero;stroke:none"
         d="m 424.188,423.664 -27.235,-54.953 c -122.59,187.051 -106.387,343.727 -106.387,343.727 20.645,64.746 67.899,176.476 67.899,176.476 1.418,15.594 4.601,35.277 7.598,52.316 -20.731,-11.636 -40.77,-24.167 -59.684,-37.777 C 186.727,817.238 120.867,702.34 120.867,579.941 c 0,-122.324 65.86,-237.246 185.512,-323.429 76.773,-55.301 169.891,-94.461 271.422,-115.321 -28.086,41.161 -36.504,93.278 -56.973,153.028 -29.598,86.347 -96.64,129.445 -96.64,129.445" /><path
         id="path20"
         style="fill:#231f20;fill-opacity:1;fill-rule:nonzero;stroke:none"
         d="m 748.164,474.316 c 46.473,0 91.699,-21.367 91.699,-52.128 0,-30.762 -27.851,-67.266 -27.851,-67.266 0,0 -11.59,19.785 -32.961,19.785 -21.383,0 -26.16,-35.691 -2.559,-59.394 22.539,-23.723 54.309,-24.083 77.942,-17.204 23.543,6.903 75.789,50.426 75.789,217.711 17.511,-17.812 26.308,-46.191 26.308,-46.191 86.089,69.101 109.419,129.355 109.419,129.355 0,0 12.17,-68.691 -62.11,-165.859 -91.418,-119.402 -58.735,-328.574 -253.293,-328.574 -194.141,0 -161.465,209.172 -252.813,328.574 -74.316,97.168 -62.187,165.859 -62.187,165.859 0,0 23.348,-60.254 109.422,-129.355 0,0 8.761,28.379 26.347,46.191 0,-167.285 52.168,-210.808 75.918,-217.711 23.586,-6.879 55.528,-6.519 78.489,17.204 22.531,23.703 18.836,59.394 -3.176,59.394 -21.512,0 -33.348,-19.785 -33.348,-19.785 0,0 -27.461,36.504 -27.461,67.266 0,30.761 45.117,52.128 91.27,52.128" /><path
         id="path22"
         style="fill:#231f20;fill-opacity:1;fill-rule:nonzero;stroke:none"
         d="M 1219.28,223.398 C 1093.58,132.801 927.234,82.9492 750.711,82.9492 574.656,82.9492 408.293,132.801 282.547,223.398 219.871,268.551 170.508,321.484 135.73,380.742 98.7969,443.613 80.0977,510.625 80.0977,579.941 c 0,69.34 18.6992,136.395 55.6323,199.231 34.778,59.285 84.141,112.23 146.809,157.402 43.359,31.231 91.641,57.485 143.328,78.676 -11.316,-40.141 -20.691,-85.559 -26.57,-136.582 0,0 -46.582,-104.234 -64.609,-167.926 0,0 0.027,-123.398 79.375,-243.426 0,0 -12.219,130.614 -7.391,168.465 4.746,36.719 73.062,-13.816 120.633,-57.968 0,0 -72.188,115.699 -42.598,261.917 0,0 27.109,42.743 89.266,69.477 0,0 133.429,-93.676 176.574,-252.844 43.437,159.168 177.039,252.844 177.039,252.844 62.109,-26.734 89.294,-69.477 89.294,-69.477 29.54,-146.218 -42.603,-261.917 -42.603,-261.917 47.533,44.152 115.843,94.687 120.553,57.968 4.86,-37.851 -7.42,-168.465 -7.42,-168.465 79.41,120.028 79.43,243.426 79.43,243.426 -17.94,63.692 -64.55,167.926 -64.55,167.926 -5.96,51.09 -15.35,96.547 -26.69,136.742 51.9,-21.219 100.27,-47.531 143.73,-78.836 62.6,-45.172 112.04,-98.117 146.82,-157.402 36.9,-62.859 55.63,-129.891 55.63,-199.231 0,-69.316 -18.73,-136.328 -55.63,-199.199 -34.78,-59.258 -84.22,-112.191 -146.87,-157.344 z M 750.711,1077.05 c 27.754,0 54.621,-1.34 81.426,-3.7 -4.469,-12.59 -8.895,-25.52 -12.528,-39.1 -22.949,1.21 -46.648,2.02 -69.882,2.02 -22.668,0 -45.11,-0.82 -67.723,-1.98 -3.988,13.56 -8.098,26.47 -12.699,39.02 27.023,2.39 54.406,3.74 81.406,3.74 z m 499.869,-99.671 c -58.1,41.881 -124.18,75.601 -195.61,100.461 -48.88,128.68 -113.31,185.33 -113.31,185.33 0,0 -48.808,-52.29 -89.355,-140.52 -33.262,3.49 -67.239,5.32 -101.594,5.32 -33.945,0 -67.977,-1.84 -101.453,-5.34 -40.567,88.25 -89.348,140.54 -89.348,140.54 0,0 -64.449,-56.69 -113.406,-185.45 C 375.273,1052.88 309.285,1019.2 251.25,977.379 106.387,872.945 26.582,730.883 26.582,577.355 26.582,423.828 106.387,281.77 251.289,177.371 386.055,80.2695 563.477,26.7813 750.711,26.7813 c 187.637,0 365.059,53.4882 499.869,150.5897 144.91,104.43 224.71,246.477 224.71,399.984 0,153.528 -79.8,295.59 -224.71,400.024" /><path
         id="path24"
         style="fill:#231f20;fill-opacity:1;fill-rule:nonzero;stroke:none"
         d="m 520.867,760.719 c 0,0 3.594,-78.254 136.457,-177.594 0,0 18.641,69.992 38.504,110.387 l -31.387,-16.11 c 0,0 -22.128,45.387 -56.148,81.754 0,0 -38.41,16.621 -87.426,1.563" /><path
         id="path26"
         style="fill:#231f20;fill-opacity:1;fill-rule:nonzero;stroke:none"
         d="m 980.73,760.719 c 0,0 -3.738,-78.254 -136.511,-177.594 0,0 -18.625,69.992 -38.371,110.387 l 31.269,-16.11 c 0,0 22.043,45.387 56.164,81.754 0,0 38.407,16.621 87.449,1.563" /><path
         id="path28"
         style="fill:#a9afb3;fill-opacity:1;fill-rule:nonzero;stroke:none"
         d="m 647.234,298.109 c 23.586,-6.879 55.528,-6.519 78.489,17.204 22.531,23.703 18.836,59.394 -3.176,59.394 -21.512,0 -33.348,-19.785 -33.348,-19.785 0,0 -21.855,29.023 -26.562,57.07 -17.629,-22.207 -23.758,-47.566 -25.801,-65.82 -22.141,14.258 -39.5,31.047 -52.734,46.582 16.933,-67.82 46.804,-89.902 63.132,-94.645" /><path
         id="path30"
         style="fill:#a9afb3;fill-opacity:1;fill-rule:nonzero;stroke:none"
         d="m 779.051,374.707 c -21.383,0 -26.16,-35.691 -2.559,-59.394 22.539,-23.723 54.309,-24.083 77.942,-17.204 16.121,4.743 45.925,26.825 63.035,94.645 -13.172,-15.527 -30.528,-32.324 -52.625,-46.582 -2.11,18.254 -8.418,43.613 -25.938,65.82 -4.797,-28.047 -26.894,-57.07 -26.894,-57.07 0,0 -11.59,19.785 -32.961,19.785" /><path
         id="path32"
         style="fill:#a9afb3;fill-opacity:1;fill-rule:nonzero;stroke:none"
         d="m 598.711,703.543 c -0.656,5.305 0.867,10.383 3.965,14.246 -4.551,4.094 -8.496,8.102 -11.809,11.82 -6.57,-7.379 -10.039,-17.48 -8.672,-28.125 2.618,-19.453 20.188,-33.242 39.446,-30.851 6.531,0.797 12.129,3.383 17.019,7.074 -3.199,4.863 -6.465,9.484 -9.578,13.852 -2.551,-2.239 -5.957,-3.864 -9.531,-4.305 -10.176,-1.277 -19.582,6.008 -20.84,16.289" /><path
         id="path34"
         style="fill:#a9afb3;fill-opacity:1;fill-rule:nonzero;stroke:none"
         d="m 902.832,703.543 c 0.754,5.305 -0.93,10.383 -3.996,14.246 4.609,4.094 8.633,8.102 11.769,11.82 6.661,-7.379 10.067,-17.48 8.75,-28.125 -2.531,-19.453 -20.253,-33.242 -39.582,-30.851 -6.296,0.797 -12.117,3.383 -16.812,7.074 3.141,4.863 6.297,9.484 9.519,13.852 2.723,-2.239 5.821,-3.864 9.473,-4.305 10.203,-1.277 19.473,6.008 20.879,16.289" /><path
         id="path36"
         style="fill:#a9afb3;fill-opacity:1;fill-rule:nonzero;stroke:none"
         d="m 750.547,153.34 c 80.32,23.539 91.582,75.41 91.582,75.41 0,0 -28.789,17.379 -91.582,17.379 -62.551,0 -91.106,-17.379 -91.106,-17.379 0,0 7.981,-49.73 91.106,-75.41" /><path
         id="path38"
         style="fill:#ffffff;fill-opacity:1;fill-rule:nonzero;stroke:none"
         d="m 945.281,1187.38 c 61.829,-112.99 68.499,-258.685 68.949,-271.669 l -2.82,2.273 c -9.36,34.61 -29.418,95.276 -68.031,160.206 l 0.906,-101.772 c -15.273,-5.719 -36.863,-15.582 -64.187,-32.367 17.754,147.379 65.183,243.329 65.183,243.329" /><path
         id="path40"
         style="fill:#ffffff;fill-opacity:1;fill-rule:nonzero;stroke:none"
         d="M 556.25,1187.38 C 494.461,1074.39 487.84,928.695 487.344,915.711 l 2.84,2.273 c 9.336,34.61 29.445,95.276 68,160.206 l -0.957,-101.772 c 15.32,-5.719 37,-15.582 64.07,-32.367 -17.606,147.379 -65.047,243.329 -65.047,243.329" /><path
         id="path42"
         style="fill:#a9afb3;fill-opacity:1;fill-rule:nonzero;stroke:none"
         d="m 1402.91,113.309 h -10.2 v 29.652 h -1.07 l -9.31,-20.711 h -7.16 l -9.4,21.102 h -1.36 v -30.043 h -9.6 v 37.921 h 16.42 l 7.67,-18.531 7.94,18.531 h 16.07 z m -54.15,29.703 h -10.86 v -29.703 h -10.19 v 29.703 h -10.83 v 8.218 h 31.88 v -8.218" /></g></g></svg>